/* XPM */
static char *mhonarc16x16[] = {
/* columns rows colors chars-per-pixel */
"16 16 106 2",
"   c #571f00",
".  c #522200",
"X  c #5f2501",
"o  c #572e1e",
"O  c #582c16",
"+  c #4e3530",
"@  c #543d37",
"#  c #6f2a00",
"$  c #762f00",
"%  c #6e461d",
"&  c #734216",
"*  c #78461b",
"=  c #68573f",
"-  c #7a4b22",
";  c #765c2c",
":  c #765e35",
">  c #675740",
",  c #7f6352",
"<  c #834400",
"1  c #874800",
"2  c #855700",
"3  c #855902",
"4  c #8f5e00",
"5  c #9e4e03",
"6  c #825f38",
"7  c #876103",
"8  c #8b6202",
"9  c #917101",
"0  c #85623b",
"q  c #ab5a1e",
"w  c #ac5f24",
"e  c #ac7511",
"r  c #a97519",
"t  c #bc7700",
"y  c #a66c27",
"u  c #a36d2a",
"i  c #846b5c",
"p  c #896f5d",
"a  c #9c7443",
"s  c #9d794e",
"d  c #c65800",
"f  c #c95b00",
"g  c #cd6800",
"h  c #c37d00",
"j  c #ce7800",
"k  c #d06d00",
"l  c #d37d00",
"z  c #9c8132",
"x  c #af9400",
"c  c #b19500",
"v  c #a4882f",
"b  c #978274",
"n  c #9a8b7b",
"m  c #9e927f",
"M  c #b9924d",
"N  c #bb9550",
"B  c #b19c68",
"V  c #b9a362",
"C  c #d58203",
"Z  c #dcb921",
"A  c #debe2c",
"S  c #e39300",
"D  c #e69801",
"F  c #ed9f02",
"G  c #efa003",
"H  c #e9ad00",
"J  c #e7b100",
"K  c #ebb300",
"L  c #f1ab00",
"P  c #ecc002",
"I  c #efca00",
"U  c #f0cc01",
"Y  c #ffd602",
"T  c #918180",
"R  c #9b8d8d",
"E  c #a5989a",
"W  c #a89b99",
"Q  c #b6acad",
"!  c #bab0b2",
"~  c #c1b6b6",
"^  c #c4bcbb",
"/  c #c1bec3",
"(  c #c8bfc0",
")  c #cac1ba",
"_  c #d0c7bf",
"`  c #cdc7c7",
"'  c #cccbcb",
"]  c #d4d4d2",
"[  c #d7d6dc",
"{  c #e1dee4",
"}  c #e9e1c4",
"|  c #e6e1dd",
" . c #ece5d2",
".. c #e2e3e4",
"X. c #eae5e1",
"o. c #eae7eb",
"O. c #ede9e6",
"+. c #eeecea",
"@. c #f0efec",
"#. c #f2f0ed",
"$. c #f6f4f2",
"%. c #f6f9ff",
"&. c #f9f7f4",
"*. c #faf8f5",
"=. c #fefdfd",
"-. c None",
/* pixels */
"-.-.-.-.-.-.-.-.-.-.-.-.-.-.-.-.",
"-.-.-.-.-.-.-.-.-.-.-.-.-.-.-.-.",
") W E | -.-.O.-.-.O.-.-.X.E W ^ ",
"@ # y > n { -.-.-.-...m > u $ + ",
"` % M 0 & * ' -.-.] - & 0 M % ^ ",
"-.' o j C f q i i y d C l O / -.",
"-.-.R 2 Y P D #   S K Y 4 b -.-.",
"-.-.o.: x 9 3 .   2 9 x : { -.-.",
"-.-.-.i < 5 g 4 3 g 5 & i -.-.-.",
"-.-.-.R t G J v z J G C b -.-.-.",
"-.-.-.{ r L U V B I L e [ -.-.-.",
"-.-.-.-.s H U }  .I K a -.-.-.-.",
"-.-.-.-.^ 7 Z -.-.A 8 ~ -.-.-.-.",
"-.-.-.-.-.! ) -.-.) Q -.-.-.-.-.",
"-.-.-.-.-.-.-.-.-.-.-.-.-.-.-.-.",
"-.-.-.-.-.-.-.-.-.-.-.-.-.-.-.-."
};
