/* XPM */
static char *mhonarc32x32[] = {
/* columns rows colors chars-per-pixel */
"32 32 247 2",
"   c #250400",
".  c #280600",
"X  c #2c0900",
"o  c #28090a",
"O  c #2e1212",
"+  c #330b00",
"@  c #331300",
"#  c #32100c",
"$  c #341800",
"%  c #3c1301",
"&  c #3b1c04",
"*  c #3e1b0c",
"=  c #391913",
"-  c #3b1d1a",
";  c #3d2016",
":  c #431e03",
">  c #4b1e00",
",  c #452103",
"<  c #43210f",
"1  c #49240d",
"2  c #40221e",
"3  c #44281e",
"4  c #4a2414",
"5  c #522300",
"6  c #562b06",
"7  c #532e0c",
"8  c #5a2b00",
"9  c #502711",
"0  c #562c18",
"q  c #5a2c13",
"w  c #573500",
"e  c #523213",
"r  c #503019",
"t  c #432522",
"y  c #442925",
"u  c #462c2a",
"i  c #4b2f2d",
"p  c #4e3020",
"a  c #4a302b",
"s  c #4a3431",
"d  c #55362a",
"f  c #55382b",
"g  c #5c3c22",
"h  c #543931",
"j  c #672600",
"k  c #602f0d",
"l  c #633000",
"z  c #6f3601",
"x  c #6b350b",
"c  c #6d3902",
"v  c #732d00",
"b  c #723b02",
"n  c #7d3704",
"m  c #5f462f",
"M  c #5c4135",
"N  c #5c433c",
"B  c #764608",
"V  c #744f02",
"C  c #7c4804",
"Z  c #735101",
"A  c #7b5700",
"S  c #7f500f",
"D  c #7d5e00",
"F  c #624727",
"G  c #664f2e",
"H  c #644f35",
"J  c #62483f",
"K  c #694a34",
"L  c #684c38",
"P  c #6c543c",
"I  c #72593a",
"U  c #634b42",
"Y  c #684f44",
"T  c #665243",
"R  c #6d5443",
"E  c #6f564a",
"W  c #6f594c",
"Q  c #6f5851",
"!  c #715649",
"~  c #745c51",
"^  c #725d59",
"/  c #716047",
"(  c #786440",
")  c #7f6b4c",
"_  c #756354",
"`  c #7a6456",
"'  c #7a645d",
"]  c #7f6854",
"[  c #813700",
"{  c #823804",
"}  c #8a4300",
"|  c #894e00",
" . c #865302",
".. c #825c03",
"X. c #885307",
"o. c #87571f",
"O. c #924200",
"+. c #974a00",
"@. c #994700",
"#. c #9e4d00",
"$. c #925f0e",
"%. c #866000",
"&. c #8e6b00",
"*. c #966e01",
"=. c #996103",
"-. c #937100",
";. c #8f622c",
":. c #9b7038",
">. c #a25200",
",. c #a75a00",
"<. c #aa5300",
"1. c #a95b00",
"2. c #b05700",
"3. c #b75f00",
"4. c #ba5d00",
"5. c #a67d00",
"6. c #ac7205",
"7. c #b56100",
"8. c #bc6500",
"9. c #b47402",
"0. c #b67c01",
"q. c #b87300",
"w. c #be7e00",
"e. c #806b4a",
"r. c #8b6a49",
"t. c #826b5b",
"y. c #86734b",
"u. c #847255",
"i. c #887656",
"p. c #8e7c53",
"a. c #9e7640",
"s. c #907458",
"d. c #836d61",
"f. c #887465",
"g. c #8f7e76",
"h. c #c56400",
"j. c #c66d00",
"k. c #cc6500",
"l. c #ce6800",
"z. c #c47b00",
"x. c #c87100",
"c. c #cc7d00",
"v. c #d26500",
"b. c #d16800",
"n. c #d96600",
"m. c #da6b00",
"M. c #d67a00",
"N. c #e57100",
"B. c #e87100",
"V. c #ad8903",
"C. c #bc9b00",
"Z. c #988a62",
"A. c #928275",
"S. c #988576",
"D. c #9b8876",
"F. c #a1956c",
"G. c #b59e75",
"H. c #c58202",
"J. c #ce8100",
"K. c #c19d01",
"L. c #cb9200",
"P. c #cf9800",
"I. c #d28700",
"U. c #d48900",
"Y. c #de8100",
"T. c #d29a00",
"R. c #da9200",
"E. c #dea000",
"W. c #d7b002",
"Q. c #dab301",
"!. c #deba1b",
"~. c #d8a023",
"^. c #dca62b",
"/. c #ddbc29",
"(. c #dcbe31",
"). c #e39c00",
"_. c #e89800",
"`. c #e3ad00",
"'. c #eaa400",
"]. c #eeaa00",
"[. c #e0b500",
"{. c #e3bc00",
"}. c #e0bb13",
"|. c #f0a600",
" X c #f1a900",
".X c #faac00",
"XX c #f7b100",
"oX c #fcb200",
"OX c #c9af59",
"+X c #ceb44b",
"@X c #d3b640",
"#X c #c6ae68",
"$X c #c9aa65",
"%X c #c7ae71",
"&X c #c9b260",
"*X c #c8b372",
"=X c #e7c601",
"-X c #eac300",
";X c #ebc40c",
":X c #ecca00",
">X c #e8c110",
",X c #e8c31c",
"<X c #f3cc00",
"1X c #f5d000",
"2X c #fbd500",
"3X c #ffdc00",
"4X c #ffe200",
"5X c #fff100",
"6X c #a08e81",
"7X c #a09285",
"8X c #a6988d",
"9X c #ac9c8a",
"0X c #b8a380",
"qX c #b5a79a",
"wX c #b1a7a2",
"eX c #b9aca3",
"rX c #bdb1a3",
"tX c #bfb3a9",
"yX c #c5b280",
"uX c #c9bb9e",
"iX c #c1b5ab",
"pX c #c5bbb5",
"aX c #c8beb2",
"sX c #dccf98",
"dX c #ccc3bb",
"fX c #d0c5b5",
"gX c #d0c6bb",
"hX c #d4cabb",
"jX c #e0cf92",
"kX c #d2cac1",
"lX c #d4cdc8",
"zX c #dbd2c6",
"xX c #e0d9cd",
"cX c #e1dad2",
"vX c #e6e0d6",
"bX c #e6e2dd",
"nX c #e9e4dd",
"mX c #eae6e2",
"MX c #ece8e2",
"NX c #f0ece6",
"BX c #f0ede9",
"VX c #f3f0ed",
"CX c #f5f4f1",
"ZX c #f8f7f5",
"AX c #f9f8f6",
"SX c #fefefe",
"DX c None",
/* pixels */
"DXDXDXDXDXDXDXDXDXDXDXDXDXDXDXDXDXDXDXDXDXDXDXDXDXDXDXDXDXDXDXDX",
"DXDXDXDXDXDXDXDXDXDXDXDXDXDXDXDXDXDXDXDXDXDXDXDXDXDXDXDXDXDXDXDX",
"DXDXDXDXDXDXDXDXDXDXDXDXDXDXDXDXDXDXDXDXDXDXDXDXDXDXDXDXDXDXDXDX",
"DXDXDXDXDXDXDXDXDXDXDXDXDXDXDXDXDXDXDXDXDXDXDXDXDXDXDXDXDXDXDXDX",
"DXDXDXDXDXDXDXDXDXDXDXDXDXDXDXDXDXDXDXDXDXDXDXDXDXDXDXDXDXDXDXDX",
"kX' R h u ^ eXDXDXDXDXkXkXDXDXDXDXDXDXlXdXDXDXDXDXiX' s a E ~ pX",
"M t 0 { n K u.P S.mXDXDXDXbXNXDXDXDXbXDXDXDXDXD.P i.L n { q u f ",
"9Xt k M.Y.$XI & y.) eXDXDXDXmXDXDXmXDXDXDXpX) p., F %XY.Y.x 2 D.",
"DXE = 6.~.jX/ G F.$ $ A.DXDXDXDXDXDXDXDX7X& @ Z.( H sX^.0.< h DX",
"DXDXW - W 0Xb :.;.@.>.l T mXDXkXkXDXDX_ 8 #.#.o.a.z G.' t J mXDX",
"DXDXDX] O [ m.4.,.h.B.N.+.F MX! d DXR } m.B.h.,.3.m.O.O R DXDXDX",
"DXDXDXDX! 4 9.].XX).j.k.B.4.r.N t s.1.B.v.j.)..X].z.9 M MXDXDXDX",
"DXDXDXDXcX3  .'.|.).T.V.h.n.b.% . h.m.h.0.P.T.'.].=.; dXDXDXDXDX",
"DXDXDXDXDXt.o *.:X1X2X4X<XP.>.+ . #.L.:X4X3X2X<X5.o R DXDXDXDXDX",
"DXDXDXDXDXdX- V.5X4X<XQ.K.D % X   % V C.W.:X4X5XK.- rXDXDXDXDXDX",
"DXDXDXDXDXDXA.r &.A $ . + j 3., @ 3.v + . + V *.e f.DXDXDXDXDXDX",
"DXDXDXDXDXDXxX= > b | >.k.m.R.w & L.m.l.<.| b 5 # fXDXDXDXDXDXDX",
"DXDXDXDXDXDX8X: U._.U.l.n.z.Q.7 * W.H.v.b.J._.R.6 A.DXDXDXDXDXDX",
"DXDXDXDXDXDXaX* q.U.R.J.z.W.}.I L }.Q.c.c.R.I.z.1 qXDXDXDXDXDXDX",
"DXDXDXDXDXDXDX' c '. X).`.-X,Xf.d./.:XQ.'.].'.B Y DXDXDXDXDXDXDX",
"DXDXDXDXDXDXDXpXS oX).|.[.1X(.] U @X2XQ.].).oX=.wXDXDXDXDXDXDXDX",
"DXDXDXDXDXDXDXDXL 6..X`.Q.3X+XiXeX&X3X{.`..XH.g DXDXDXDXDXDXDXDX",
"DXDXDXDXDXDXDXDXg.9.oXQ.=X3X#XDXDXyX3X{.[.oXH.' DXDXDXDXDXDXDXDX",
"DXDXDXDXDXDXDXDXeXB '.<X[.3XuXDXDXhX2X{.<X].X.8XDXDXDXDXDXDXDXDX",
"DXDXDXDXDXDXDXDXDXY Z 1X<X;XnXDXDXDX!.2X1X%.h MXDXDXDXDXDXDXDXDX",
"DXDXDXDXDXDXDXDXDXcXd V =XOXDXDXDXDX*X:X..p zXDXDXDXDXDXDXDXDXDX",
"DXDXDXDXDXDXDXDXDXDXlXi g nXDXDXDXDXDXK u pXDXDXDXDXDXDXDXDXDXDX",
"DXDXDXDXDXDXDXDXDXDXDXDXDXDXDXDXDXDXDXDXDXDXDXDXDXDXDXDXDXDXDXDX",
"DXDXDXDXDXDXDXDXDXDXDXDXDXDXDXDXDXDXDXDXDXDXDXDXDXDXDXDXDXDXDXDX",
"DXDXDXDXDXDXDXDXDXDXDXDXDXDXDXDXDXDXDXDXDXDXDXDXDXDXDXDXDXDXDXDX",
"DXDXDXDXDXDXDXDXDXDXDXDXDXDXDXDXDXDXDXDXDXDXDXDXDXDXDXDXDXDXDXDX",
"DXDXDXDXDXDXDXDXDXDXDXDXDXDXDXDXDXDXDXDXDXDXDXDXDXDXDXDXDXDXDXDX"
};
